solid Pi1541v3
facet normal -0.9914448613738106 0.13052619222005077 0.0
  outer loop
    vertex 6.401100974067012 16.549798748993172 21.679215340955608
    vertex 6.332952626645149 16.032160658788126 15.679215340955608
    vertex 6.332952626645149 16.032160658788126 21.679215340955608
  endloop
endfacet
facet normal -0.9914448613738106 0.13052619222005077 0.0
  outer loop
    vertex 6.332952626645149 16.032160658788126 15.679215340955608
    vertex 6.401100974067012 16.549798748993172 21.679215340955608
    vertex 6.401100974067012 16.549798748993172 15.679215340955608
  endloop
endfacet
facet normal -0.608761429008718 -0.7933533402912374 -0.0
  outer loop
    vertex 5.815314536440106 17.96401231136627 21.679215340955608
    vertex 5.4011009740670115 18.28184955656205 15.679215340955608
    vertex 5.815314536440106 17.96401231136627 15.679215340955608
  endloop
endfacet
facet normal -0.608761429008718 -0.7933533402912374 -0.0
  outer loop
    vertex 5.4011009740670115 18.28184955656205 15.679215340955608
    vertex 5.815314536440106 17.96401231136627 21.679215340955608
    vertex 5.4011009740670115 18.28184955656205 21.679215340955608
  endloop
endfacet
facet normal -0.7933533402912386 -0.6087614290087161 -0.0
  outer loop
    vertex 5.815314536440106 17.96401231136627 21.679215340955608
    vertex 6.133151781635888 17.54979874899317 15.679215340955608
    vertex 6.133151781635888 17.54979874899317 21.679215340955608
  endloop
endfacet
facet normal -0.7933533402912386 -0.6087614290087161 -0.0
  outer loop
    vertex 6.133151781635888 17.54979874899317 15.679215340955608
    vertex 5.815314536440106 17.96401231136627 21.679215340955608
    vertex 5.815314536440106 17.96401231136627 15.679215340955608
  endloop
endfacet
facet normal 0.7933533402912347 -0.6087614290087213 0.0
  outer loop
    vertex 2.9868874116939144 17.96401231136627 15.679215340955608
    vertex 2.669050166498132 17.549798748993176 21.679215340955608
    vertex 2.669050166498132 17.549798748993176 15.679215340955608
  endloop
endfacet
facet normal 0.7933533402912347 -0.6087614290087213 0.0
  outer loop
    vertex 2.669050166498132 17.549798748993176 21.679215340955608
    vertex 2.9868874116939144 17.96401231136627 15.679215340955608
    vertex 2.9868874116939144 17.96401231136627 21.679215340955608
  endloop
endfacet
facet normal 0.13052619222005143 -0.9914448613738105 0.0
  outer loop
    vertex 4.401100974067011 18.549798748993172 21.679215340955608
    vertex 3.883462883861968 18.48165040157131 15.679215340955608
    vertex 4.401100974067011 18.549798748993172 15.679215340955608
  endloop
endfacet
facet normal 0.13052619222005143 -0.9914448613738105 0.0
  outer loop
    vertex 3.883462883861968 18.48165040157131 15.679215340955608
    vertex 4.401100974067011 18.549798748993172 21.679215340955608
    vertex 3.883462883861968 18.48165040157131 21.679215340955608
  endloop
endfacet
facet normal -0.9238795325112861 -0.3826834323650913 -0.0
  outer loop
    vertex 6.133151781635888 17.54979874899317 21.679215340955608
    vertex 6.332952626645149 17.067436839198212 15.679215340955608
    vertex 6.332952626645149 17.067436839198212 21.679215340955608
  endloop
endfacet
facet normal -0.9238795325112861 -0.3826834323650913 -0.0
  outer loop
    vertex 6.332952626645149 17.067436839198212 15.679215340955608
    vertex 6.133151781635888 17.54979874899317 21.679215340955608
    vertex 6.133151781635888 17.54979874899317 15.679215340955608
  endloop
endfacet
facet normal -0.13052619222005143 -0.9914448613738105 -0.0
  outer loop
    vertex 4.918739064272053 18.48165040157131 21.679215340955608
    vertex 4.401100974067011 18.549798748993172 15.679215340955608
    vertex 4.918739064272053 18.48165040157131 15.679215340955608
  endloop
endfacet
facet normal -0.13052619222005143 -0.9914448613738105 -0.0
  outer loop
    vertex 4.401100974067011 18.549798748993172 15.679215340955608
    vertex 4.918739064272053 18.48165040157131 21.679215340955608
    vertex 4.401100974067011 18.549798748993172 21.679215340955608
  endloop
endfacet
facet normal 0.608761429008718 -0.7933533402912374 0.0
  outer loop
    vertex 3.4011009740670093 18.28184955656205 21.679215340955608
    vertex 2.9868874116939144 17.96401231136627 15.679215340955608
    vertex 3.4011009740670093 18.28184955656205 15.679215340955608
  endloop
endfacet
facet normal 0.608761429008718 -0.7933533402912374 0.0
  outer loop
    vertex 2.9868874116939144 17.96401231136627 15.679215340955608
    vertex 3.4011009740670093 18.28184955656205 21.679215340955608
    vertex 2.9868874116939144 17.96401231136627 21.679215340955608
  endloop
endfacet
facet normal -0.9914448613738104 -0.13052619222005216 -0.0
  outer loop
    vertex 6.332952626645149 17.067436839198212 21.679215340955608
    vertex 6.401100974067012 16.549798748993172 15.679215340955608
    vertex 6.401100974067012 16.549798748993172 21.679215340955608
  endloop
endfacet
facet normal -0.9914448613738104 -0.13052619222005216 -0.0
  outer loop
    vertex 6.401100974067012 16.549798748993172 15.679215340955608
    vertex 6.332952626645149 17.067436839198212 21.679215340955608
    vertex 6.332952626645149 17.067436839198212 15.679215340955608
  endloop
endfacet
facet normal 0.9238795325112878 -0.38268343236508756 0.0
  outer loop
    vertex 2.669050166498132 17.549798748993176 15.679215340955608
    vertex 2.469249321488872 17.067436839198212 21.679215340955608
    vertex 2.469249321488872 17.067436839198212 15.679215340955608
  endloop
endfacet
facet normal 0.9238795325112878 -0.38268343236508756 0.0
  outer loop
    vertex 2.469249321488872 17.067436839198212 21.679215340955608
    vertex 2.669050166498132 17.549798748993176 15.679215340955608
    vertex 2.669050166498132 17.549798748993176 21.679215340955608
  endloop
endfacet
facet normal 0.0 0.0 -1.0
  outer loop
    vertex 2.469249321488872 17.067436839198212 21.679215340955608
    vertex 2.469249321488872 16.032160658788133 21.679215340955608
    vertex 2.4011009740670084 16.549798748993172 21.679215340955608
  endloop
endfacet
facet normal 0.0 0.0 -1.0
  outer loop
    vertex 2.469249321488872 16.032160658788133 21.679215340955608
    vertex 2.469249321488872 17.067436839198212 21.679215340955608
    vertex 2.669050166498132 17.549798748993176 21.679215340955608
  endloop
endfacet
facet normal 0.0 0.0 -1.0
  outer loop
    vertex 2.469249321488872 16.032160658788133 21.679215340955608
    vertex 2.669050166498132 17.549798748993176 21.679215340955608
    vertex 2.669050166498132 15.549798748993174 21.679215340955608
  endloop
endfacet
facet normal 0.0 0.0 -1.0
  outer loop
    vertex 2.669050166498132 15.549798748993174 21.679215340955608
    vertex 2.669050166498132 17.549798748993176 21.679215340955608
    vertex 2.9868874116939144 17.96401231136627 21.679215340955608
  endloop
endfacet
facet normal 0.0 0.0 -1.0
  outer loop
    vertex 2.669050166498132 15.549798748993174 21.679215340955608
    vertex 2.9868874116939144 17.96401231136627 21.679215340955608
    vertex 2.9868874116939117 15.135585186620078 21.679215340955608
  endloop
endfacet
facet normal 0.0 0.0 -1.0
  outer loop
    vertex 2.9868874116939117 15.135585186620078 21.679215340955608
    vertex 2.9868874116939144 17.96401231136627 21.679215340955608
    vertex 3.4011009740670093 14.817747941424294 21.679215340955608
  endloop
endfacet
facet normal 0.0 0.0 -1.0
  outer loop
    vertex 3.4011009740670093 14.817747941424294 21.679215340955608
    vertex 2.9868874116939144 17.96401231136627 21.679215340955608
    vertex 3.4011009740670093 18.28184955656205 21.679215340955608
  endloop
endfacet
facet normal 0.0 0.0 -1.0
  outer loop
    vertex 3.4011009740670093 14.817747941424294 21.679215340955608
    vertex 3.4011009740670093 18.28184955656205 21.679215340955608
    vertex 3.883462883861968 18.48165040157131 21.679215340955608
  endloop
endfacet
facet normal 0.0 0.0 -1.0
  outer loop
    vertex 3.4011009740670093 14.817747941424294 21.679215340955608
    vertex 3.883462883861968 18.48165040157131 21.679215340955608
    vertex 3.883462883861968 14.617947096415033 21.679215340955608
  endloop
endfacet
facet normal 0.0 0.0 -1.0
  outer loop
    vertex 3.883462883861968 14.617947096415033 21.679215340955608
    vertex 3.883462883861968 18.48165040157131 21.679215340955608
    vertex 4.401100974067011 18.549798748993172 21.679215340955608
  endloop
endfacet
facet normal 0.0 0.0 -1.0
  outer loop
    vertex 3.883462883861968 14.617947096415033 21.679215340955608
    vertex 4.401100974067011 18.549798748993172 21.679215340955608
    vertex 4.401100974067011 14.54979874899317 21.679215340955608
  endloop
endfacet
facet normal 0.0 0.0 -1.0
  outer loop
    vertex 4.401100974067011 14.54979874899317 21.679215340955608
    vertex 4.401100974067011 18.549798748993172 21.679215340955608
    vertex 4.918739064272053 18.48165040157131 21.679215340955608
  endloop
endfacet
facet normal 0.0 0.0 -1.0
  outer loop
    vertex 4.401100974067011 14.54979874899317 21.679215340955608
    vertex 4.918739064272053 18.48165040157131 21.679215340955608
    vertex 4.91873906427205 14.617947096415033 21.679215340955608
  endloop
endfacet
facet normal 0.0 0.0 -1.0
  outer loop
    vertex 4.91873906427205 14.617947096415033 21.679215340955608
    vertex 4.918739064272053 18.48165040157131 21.679215340955608
    vertex 5.401100974067009 14.817747941424294 21.679215340955608
  endloop
endfacet
facet normal 0.0 0.0 -1.0
  outer loop
    vertex 5.401100974067009 14.817747941424294 21.679215340955608
    vertex 4.918739064272053 18.48165040157131 21.679215340955608
    vertex 5.4011009740670115 18.28184955656205 21.679215340955608
  endloop
endfacet
facet normal 0.0 0.0 -1.0
  outer loop
    vertex 5.401100974067009 14.817747941424294 21.679215340955608
    vertex 5.4011009740670115 18.28184955656205 21.679215340955608
    vertex 5.815314536440106 15.135585186620073 21.679215340955608
  endloop
endfacet
facet normal 0.0 0.0 -1.0
  outer loop
    vertex 5.815314536440106 15.135585186620073 21.679215340955608
    vertex 5.4011009740670115 18.28184955656205 21.679215340955608
    vertex 5.815314536440106 17.96401231136627 21.679215340955608
  endloop
endfacet
facet normal 0.0 0.0 -1.0
  outer loop
    vertex 5.815314536440106 15.135585186620073 21.679215340955608
    vertex 5.815314536440106 17.96401231136627 21.679215340955608
    vertex 6.133151781635888 17.54979874899317 21.679215340955608
  endloop
endfacet
facet normal 0.0 0.0 -1.0
  outer loop
    vertex 5.815314536440106 15.135585186620073 21.679215340955608
    vertex 6.133151781635888 17.54979874899317 21.679215340955608
    vertex 6.133151781635888 15.549798748993169 21.679215340955608
  endloop
endfacet
facet normal 0.0 0.0 -1.0
  outer loop
    vertex 6.133151781635888 15.549798748993169 21.679215340955608
    vertex 6.133151781635888 17.54979874899317 21.679215340955608
    vertex 6.332952626645149 17.067436839198212 21.679215340955608
  endloop
endfacet
facet normal 0.0 0.0 -1.0
  outer loop
    vertex 6.133151781635888 15.549798748993169 21.679215340955608
    vertex 6.332952626645149 17.067436839198212 21.679215340955608
    vertex 6.332952626645149 16.032160658788126 21.679215340955608
  endloop
endfacet
facet normal 0.0 0.0 -1.0
  outer loop
    vertex 6.332952626645149 16.032160658788126 21.679215340955608
    vertex 6.332952626645149 17.067436839198212 21.679215340955608
    vertex 6.401100974067012 16.549798748993172 21.679215340955608
  endloop
endfacet
facet normal 0.9914448613738104 -0.13052619222005216 0.0
  outer loop
    vertex 2.469249321488872 17.067436839198212 15.679215340955608
    vertex 2.4011009740670084 16.549798748993172 21.679215340955608
    vertex 2.4011009740670084 16.549798748993172 15.679215340955608
  endloop
endfacet
facet normal 0.9914448613738104 -0.13052619222005216 0.0
  outer loop
    vertex 2.4011009740670084 16.549798748993172 21.679215340955608
    vertex 2.469249321488872 17.067436839198212 15.679215340955608
    vertex 2.469249321488872 17.067436839198212 21.679215340955608
  endloop
endfacet
facet normal 0.3826834323650913 -0.9238795325112861 0.0
  outer loop
    vertex 3.883462883861968 18.48165040157131 21.679215340955608
    vertex 3.4011009740670093 18.28184955656205 15.679215340955608
    vertex 3.883462883861968 18.48165040157131 15.679215340955608
  endloop
endfacet
facet normal 0.3826834323650913 -0.9238795325112861 0.0
  outer loop
    vertex 3.4011009740670093 18.28184955656205 15.679215340955608
    vertex 3.883462883861968 18.48165040157131 21.679215340955608
    vertex 3.4011009740670093 18.28184955656205 21.679215340955608
  endloop
endfacet
facet normal -0.13052619222005216 0.9914448613738104 0.0
  outer loop
    vertex 4.401100974067011 14.54979874899317 21.679215340955608
    vertex 4.91873906427205 14.617947096415033 15.679215340955608
    vertex 4.401100974067011 14.54979874899317 15.679215340955608
  endloop
endfacet
facet normal -0.13052619222005216 0.9914448613738104 0.0
  outer loop
    vertex 4.91873906427205 14.617947096415033 15.679215340955608
    vertex 4.401100974067011 14.54979874899317 21.679215340955608
    vertex 4.91873906427205 14.617947096415033 21.679215340955608
  endloop
endfacet
facet normal 0.13052619222005143 0.9914448613738105 0.0
  outer loop
    vertex 3.883462883861968 14.617947096415033 21.679215340955608
    vertex 4.401100974067011 14.54979874899317 15.679215340955608
    vertex 3.883462883861968 14.617947096415033 15.679215340955608
  endloop
endfacet
facet normal 0.13052619222005143 0.9914448613738105 0.0
  outer loop
    vertex 4.401100974067011 14.54979874899317 15.679215340955608
    vertex 3.883462883861968 14.617947096415033 21.679215340955608
    vertex 4.401100974067011 14.54979874899317 21.679215340955608
  endloop
endfacet
facet normal 0.3826834323650913 0.9238795325112861 0.0
  outer loop
    vertex 3.4011009740670093 14.817747941424294 21.679215340955608
    vertex 3.883462883861968 14.617947096415033 15.679215340955608
    vertex 3.4011009740670093 14.817747941424294 15.679215340955608
  endloop
endfacet
facet normal 0.3826834323650913 0.9238795325112861 0.0
  outer loop
    vertex 3.883462883861968 14.617947096415033 15.679215340955608
    vertex 3.4011009740670093 14.817747941424294 21.679215340955608
    vertex 3.883462883861968 14.617947096415033 21.679215340955608
  endloop
endfacet
facet normal 0.6087614290087221 0.793353340291234 0.0
  outer loop
    vertex 2.9868874116939117 15.135585186620078 21.679215340955608
    vertex 3.4011009740670093 14.817747941424294 15.679215340955608
    vertex 2.9868874116939117 15.135585186620078 15.679215340955608
  endloop
endfacet
facet normal 0.6087614290087221 0.793353340291234 0.0
  outer loop
    vertex 3.4011009740670093 14.817747941424294 15.679215340955608
    vertex 2.9868874116939117 15.135585186620078 21.679215340955608
    vertex 3.4011009740670093 14.817747941424294 21.679215340955608
  endloop
endfacet
facet normal 0.7933533402912374 0.608761429008718 0.0
  outer loop
    vertex 2.669050166498132 15.549798748993174 15.679215340955608
    vertex 2.9868874116939117 15.135585186620078 21.679215340955608
    vertex 2.9868874116939117 15.135585186620078 15.679215340955608
  endloop
endfacet
facet normal 0.7933533402912374 0.608761429008718 0.0
  outer loop
    vertex 2.9868874116939117 15.135585186620078 21.679215340955608
    vertex 2.669050166498132 15.549798748993174 15.679215340955608
    vertex 2.669050166498132 15.549798748993174 21.679215340955608
  endloop
endfacet
facet normal 0.9914448613738104 0.13052619222005216 0.0
  outer loop
    vertex 2.4011009740670084 16.549798748993172 15.679215340955608
    vertex 2.469249321488872 16.032160658788133 21.679215340955608
    vertex 2.469249321488872 16.032160658788133 15.679215340955608
  endloop
endfacet
facet normal 0.9914448613738104 0.13052619222005216 0.0
  outer loop
    vertex 2.469249321488872 16.032160658788133 21.679215340955608
    vertex 2.4011009740670084 16.549798748993172 15.679215340955608
    vertex 2.4011009740670084 16.549798748993172 21.679215340955608
  endloop
endfacet
facet normal 0.9238795325112861 0.3826834323650913 0.0
  outer loop
    vertex 2.469249321488872 16.032160658788133 15.679215340955608
    vertex 2.669050166498132 15.549798748993174 21.679215340955608
    vertex 2.669050166498132 15.549798748993174 15.679215340955608
  endloop
endfacet
facet normal 0.9238795325112861 0.3826834323650913 0.0
  outer loop
    vertex 2.669050166498132 15.549798748993174 21.679215340955608
    vertex 2.469249321488872 16.032160658788133 15.679215340955608
    vertex 2.469249321488872 16.032160658788133 21.679215340955608
  endloop
endfacet
facet normal -0.3826834323650913 0.9238795325112861 0.0
  outer loop
    vertex 4.91873906427205 14.617947096415033 21.679215340955608
    vertex 5.401100974067009 14.817747941424294 15.679215340955608
    vertex 4.91873906427205 14.617947096415033 15.679215340955608
  endloop
endfacet
facet normal -0.3826834323650913 0.9238795325112861 0.0
  outer loop
    vertex 5.401100974067009 14.817747941424294 15.679215340955608
    vertex 4.91873906427205 14.617947096415033 21.679215340955608
    vertex 5.401100974067009 14.817747941424294 21.679215340955608
  endloop
endfacet
facet normal -0.6087614290087153 0.7933533402912393 0.0
  outer loop
    vertex 5.401100974067009 14.817747941424294 21.679215340955608
    vertex 5.815314536440106 15.135585186620073 15.679215340955608
    vertex 5.401100974067009 14.817747941424294 15.679215340955608
  endloop
endfacet
facet normal -0.6087614290087153 0.7933533402912393 0.0
  outer loop
    vertex 5.815314536440106 15.135585186620073 15.679215340955608
    vertex 5.401100974067009 14.817747941424294 21.679215340955608
    vertex 5.815314536440106 15.135585186620073 21.679215340955608
  endloop
endfacet
facet normal -0.7933533402912347 0.6087614290087213 0.0
  outer loop
    vertex 6.133151781635888 15.549798748993169 21.679215340955608
    vertex 5.815314536440106 15.135585186620073 15.679215340955608
    vertex 5.815314536440106 15.135585186620073 21.679215340955608
  endloop
endfacet
facet normal -0.7933533402912347 0.6087614290087213 0.0
  outer loop
    vertex 5.815314536440106 15.135585186620073 15.679215340955608
    vertex 6.133151781635888 15.549798748993169 21.679215340955608
    vertex 6.133151781635888 15.549798748993169 15.679215340955608
  endloop
endfacet
facet normal -0.3826834323650913 -0.9238795325112861 -0.0
  outer loop
    vertex 5.4011009740670115 18.28184955656205 21.679215340955608
    vertex 4.918739064272053 18.48165040157131 15.679215340955608
    vertex 5.4011009740670115 18.28184955656205 15.679215340955608
  endloop
endfacet
facet normal -0.3826834323650913 -0.9238795325112861 -0.0
  outer loop
    vertex 4.918739064272053 18.48165040157131 15.679215340955608
    vertex 5.4011009740670115 18.28184955656205 21.679215340955608
    vertex 4.918739064272053 18.48165040157131 21.679215340955608
  endloop
endfacet
facet normal -0.9238795325112861 0.3826834323650913 0.0
  outer loop
    vertex 6.332952626645149 16.032160658788126 21.679215340955608
    vertex 6.133151781635888 15.549798748993169 15.679215340955608
    vertex 6.133151781635888 15.549798748993169 21.679215340955608
  endloop
endfacet
facet normal -0.9238795325112861 0.3826834323650913 0.0
  outer loop
    vertex 6.133151781635888 15.549798748993169 15.679215340955608
    vertex 6.332952626645149 16.032160658788126 21.679215340955608
    vertex 6.332952626645149 16.032160658788126 15.679215340955608
  endloop
endfacet
facet normal -0.6087614290087191 0.7933533402912364 0.0
  outer loop
    vertex 1.9262272399140934 19.024672483146087 15.679215340955608
    vertex 2.6511009740670106 19.580887662238705 13.67921534095561
    vertex 1.9262272399140934 19.024672483146087 13.67921534095561
  endloop
endfacet
facet normal -0.6087614290087191 0.7933533402912364 0.0
  outer loop
    vertex 2.6511009740670106 19.580887662238705 13.67921534095561
    vertex 1.9262272399140934 19.024672483146087 15.679215340955608
    vertex 2.6511009740670106 19.580887662238705 15.679215340955608
  endloop
endfacet
facet normal -0.7933533402912353 0.6087614290087207 0.0
  outer loop
    vertex 1.9262272399140934 19.024672483146087 15.679215340955608
    vertex 1.370012060821476 18.299798748993176 13.67921534095561
    vertex 1.370012060821476 18.299798748993176 15.679215340955608
  endloop
endfacet
facet normal -0.7933533402912353 0.6087614290087207 0.0
  outer loop
    vertex 1.370012060821476 18.299798748993176 13.67921534095561
    vertex 1.9262272399140934 19.024672483146087 15.679215340955608
    vertex 1.9262272399140934 19.024672483146087 13.67921534095561
  endloop
endfacet
facet normal -0.923879532511287 0.38268343236508945 0.0
  outer loop
    vertex 1.370012060821476 18.299798748993176 15.679215340955608
    vertex 1.0203605820552721 17.455665406851995 13.67921534095561
    vertex 1.0203605820552721 17.455665406851995 15.679215340955608
  endloop
endfacet
facet normal -0.923879532511287 0.38268343236508945 0.0
  outer loop
    vertex 1.0203605820552721 17.455665406851995 13.67921534095561
    vertex 1.370012060821476 18.299798748993176 15.679215340955608
    vertex 1.370012060821476 18.299798748993176 13.67921534095561
  endloop
endfacet
facet normal -0.9914448613738105 0.13052619222005155 0.0
  outer loop
    vertex 1.0203605820552721 17.455665406851995 15.679215340955608
    vertex 0.9011009740670111 16.549798748993172 13.67921534095561
    vertex 0.9011009740670111 16.549798748993172 15.679215340955608
  endloop
endfacet
facet normal -0.9914448613738105 0.13052619222005155 0.0
  outer loop
    vertex 0.9011009740670111 16.549798748993172 13.67921534095561
    vertex 1.0203605820552721 17.455665406851995 15.679215340955608
    vertex 1.0203605820552721 17.455665406851995 13.67921534095561
  endloop
endfacet
facet normal -0.9914448613738103 -0.13052619222005235 -0.0
  outer loop
    vertex 0.9011009740670111 16.549798748993172 15.679215340955608
    vertex 1.0203605820552721 15.643932091134353 13.67921534095561
    vertex 1.0203605820552721 15.643932091134353 15.679215340955608
  endloop
endfacet
facet normal -0.9914448613738103 -0.13052619222005235 -0.0
  outer loop
    vertex 1.0203605820552721 15.643932091134353 13.67921534095561
    vertex 0.9011009740670111 16.549798748993172 15.679215340955608
    vertex 0.9011009740670111 16.549798748993172 13.67921534095561
  endloop
endfacet
facet normal -0.923879532511287 -0.38268343236508945 -0.0
  outer loop
    vertex 1.0203605820552721 15.643932091134353 15.679215340955608
    vertex 1.370012060821476 14.799798748993176 13.67921534095561
    vertex 1.370012060821476 14.799798748993176 15.679215340955608
  endloop
endfacet
facet normal -0.923879532511287 -0.38268343236508945 -0.0
  outer loop
    vertex 1.370012060821476 14.799798748993176 13.67921534095561
    vertex 1.0203605820552721 15.643932091134353 15.679215340955608
    vertex 1.0203605820552721 15.643932091134353 13.67921534095561
  endloop
endfacet
facet normal -0.7933533402912375 -0.6087614290087177 -0.0
  outer loop
    vertex 1.370012060821476 14.799798748993176 15.679215340955608
    vertex 1.9262272399140934 14.074925014840256 13.67921534095561
    vertex 1.9262272399140934 14.074925014840256 15.679215340955608
  endloop
endfacet
facet normal -0.7933533402912375 -0.6087614290087177 -0.0
  outer loop
    vertex 1.9262272399140934 14.074925014840256 13.67921534095561
    vertex 1.370012060821476 14.799798748993176 15.679215340955608
    vertex 1.370012060821476 14.799798748993176 13.67921534095561
  endloop
endfacet
facet normal -0.6087614290087207 -0.7933533402912353 -0.0
  outer loop
    vertex 2.651100974067008 13.518709835747638 15.679215340955608
    vertex 1.9262272399140934 14.074925014840256 13.67921534095561
    vertex 2.651100974067008 13.518709835747638 13.67921534095561
  endloop
endfacet
facet normal -0.6087614290087207 -0.7933533402912353 -0.0
  outer loop
    vertex 1.9262272399140934 14.074925014840256 13.67921534095561
    vertex 2.651100974067008 13.518709835747638 15.679215340955608
    vertex 1.9262272399140934 14.074925014840256 15.679215340955608
  endloop
endfacet
facet normal -0.38268343236508684 -0.923879532511288 -0.0
  outer loop
    vertex 3.4952343162081863 13.169058356981436 15.679215340955608
    vertex 2.651100974067008 13.518709835747638 13.67921534095561
    vertex 3.4952343162081863 13.169058356981436 13.67921534095561
  endloop
endfacet
facet normal -0.38268343236508684 -0.923879532511288 -0.0
  outer loop
    vertex 2.651100974067008 13.518709835747638 13.67921534095561
    vertex 3.4952343162081863 13.169058356981436 15.679215340955608
    vertex 2.651100974067008 13.518709835747638 15.679215340955608
  endloop
endfacet
facet normal -0.1305261922200546 -0.9914448613738102 -0.0
  outer loop
    vertex 4.401100974067011 13.049798748993172 15.679215340955608
    vertex 3.4952343162081863 13.169058356981436 13.67921534095561
    vertex 4.401100974067011 13.049798748993172 13.67921534095561
  endloop
endfacet
facet normal -0.1305261922200546 -0.9914448613738102 -0.0
  outer loop
    vertex 3.4952343162081863 13.169058356981436 13.67921534095561
    vertex 4.401100974067011 13.049798748993172 15.679215340955608
    vertex 3.4952343162081863 13.169058356981436 15.679215340955608
  endloop
endfacet
facet normal 0.1305261922200489 -0.9914448613738108 0.0
  outer loop
    vertex 5.306967631925832 13.16905835698143 15.679215340955608
    vertex 4.401100974067011 13.049798748993172 13.67921534095561
    vertex 5.306967631925832 13.16905835698143 13.67921534095561
  endloop
endfacet
facet normal 0.1305261922200489 -0.9914448613738108 0.0
  outer loop
    vertex 4.401100974067011 13.049798748993172 13.67921534095561
    vertex 5.306967631925832 13.16905835698143 15.679215340955608
    vertex 4.401100974067011 13.049798748993172 15.679215340955608
  endloop
endfacet
facet normal 0.38268343236509317 -0.9238795325112854 0.0
  outer loop
    vertex 6.151100974067007 13.518709835747638 15.679215340955608
    vertex 5.306967631925832 13.16905835698143 13.67921534095561
    vertex 6.151100974067007 13.518709835747638 13.67921534095561
  endloop
endfacet
facet normal 0.38268343236509317 -0.9238795325112854 0.0
  outer loop
    vertex 5.306967631925832 13.16905835698143 13.67921534095561
    vertex 6.151100974067007 13.518709835747638 15.679215340955608
    vertex 5.306967631925832 13.16905835698143 15.679215340955608
  endloop
endfacet
facet normal 0.6087614290087177 -0.7933533402912375 0.0
  outer loop
    vertex 6.875974708219927 14.074925014840256 15.679215340955608
    vertex 6.151100974067007 13.518709835747638 13.67921534095561
    vertex 6.875974708219927 14.074925014840256 13.67921534095561
  endloop
endfacet
facet normal 0.6087614290087177 -0.7933533402912375 0.0
  outer loop
    vertex 6.151100974067007 13.518709835747638 13.67921534095561
    vertex 6.875974708219927 14.074925014840256 15.679215340955608
    vertex 6.151100974067007 13.518709835747638 15.679215340955608
  endloop
endfacet
facet normal 0.7933533402912353 -0.6087614290087207 0.0
  outer loop
    vertex 7.4321898873125445 14.799798748993169 13.67921534095561
    vertex 6.875974708219927 14.074925014840256 15.679215340955608
    vertex 6.875974708219927 14.074925014840256 13.67921534095561
  endloop
endfacet
facet normal 0.7933533402912353 -0.6087614290087207 0.0
  outer loop
    vertex 6.875974708219927 14.074925014840256 15.679215340955608
    vertex 7.4321898873125445 14.799798748993169 13.67921534095561
    vertex 7.4321898873125445 14.799798748993169 15.679215340955608
  endloop
endfacet
facet normal 0.923879532511288 -0.38268343236508684 0.0
  outer loop
    vertex 7.781841366078746 15.643932091134348 13.67921534095561
    vertex 7.4321898873125445 14.799798748993169 15.679215340955608
    vertex 7.4321898873125445 14.799798748993169 13.67921534095561
  endloop
endfacet
facet normal 0.923879532511288 -0.38268343236508684 0.0
  outer loop
    vertex 7.4321898873125445 14.799798748993169 15.679215340955608
    vertex 7.781841366078746 15.643932091134348 13.67921534095561
    vertex 7.781841366078746 15.643932091134348 15.679215340955608
  endloop
endfacet
facet normal 0.9914448613738102 -0.1305261922200546 0.0
  outer loop
    vertex 7.90110097406701 16.549798748993172 13.67921534095561
    vertex 7.781841366078746 15.643932091134348 15.679215340955608
    vertex 7.781841366078746 15.643932091134348 13.67921534095561
  endloop
endfacet
facet normal 0.9914448613738102 -0.1305261922200546 0.0
  outer loop
    vertex 7.781841366078746 15.643932091134348 15.679215340955608
    vertex 7.90110097406701 16.549798748993172 13.67921534095561
    vertex 7.90110097406701 16.549798748993172 15.679215340955608
  endloop
endfacet
facet normal 0.9914448613738102 0.1305261922200546 0.0
  outer loop
    vertex 7.781841366078746 17.455665406851995 13.67921534095561
    vertex 7.90110097406701 16.549798748993172 15.679215340955608
    vertex 7.90110097406701 16.549798748993172 13.67921534095561
  endloop
endfacet
facet normal 0.9914448613738102 0.1305261922200546 0.0
  outer loop
    vertex 7.90110097406701 16.549798748993172 15.679215340955608
    vertex 7.781841366078746 17.455665406851995 13.67921534095561
    vertex 7.781841366078746 17.455665406851995 15.679215340955608
  endloop
endfacet
facet normal 0.9238795325112871 0.38268343236508895 0.0
  outer loop
    vertex 7.4321898873125445 18.29979874899317 13.67921534095561
    vertex 7.781841366078746 17.455665406851995 15.679215340955608
    vertex 7.781841366078746 17.455665406851995 13.67921534095561
  endloop
endfacet
facet normal 0.9238795325112871 0.38268343236508895 0.0
  outer loop
    vertex 7.781841366078746 17.455665406851995 15.679215340955608
    vertex 7.4321898873125445 18.29979874899317 13.67921534095561
    vertex 7.4321898873125445 18.29979874899317 15.679215340955608
  endloop
endfacet
facet normal 0.7933533402912375 0.6087614290087177 0.0
  outer loop
    vertex 6.875974708219927 19.024672483146087 13.67921534095561
    vertex 7.4321898873125445 18.29979874899317 15.679215340955608
    vertex 7.4321898873125445 18.29979874899317 13.67921534095561
  endloop
endfacet
facet normal 0.7933533402912375 0.6087614290087177 0.0
  outer loop
    vertex 7.4321898873125445 18.29979874899317 15.679215340955608
    vertex 6.875974708219927 19.024672483146087 13.67921534095561
    vertex 6.875974708219927 19.024672483146087 15.679215340955608
  endloop
endfacet
facet normal 0.6087614290087207 0.7933533402912353 0.0
  outer loop
    vertex 6.151100974067012 19.580887662238705 15.679215340955608
    vertex 6.875974708219927 19.024672483146087 13.67921534095561
    vertex 6.151100974067012 19.580887662238705 13.67921534095561
  endloop
endfacet
facet normal 0.6087614290087207 0.7933533402912353 0.0
  outer loop
    vertex 6.875974708219927 19.024672483146087 13.67921534095561
    vertex 6.151100974067012 19.580887662238705 15.679215340955608
    vertex 6.875974708219927 19.024672483146087 15.679215340955608
  endloop
endfacet
facet normal 0.3826834323650921 0.9238795325112859 0.0
  outer loop
    vertex 5.3069676319258345 19.930539141004914 15.679215340955608
    vertex 6.151100974067012 19.580887662238705 13.67921534095561
    vertex 5.3069676319258345 19.930539141004914 13.67921534095561
  endloop
endfacet
facet normal 0.3826834323650921 0.9238795325112859 0.0
  outer loop
    vertex 6.151100974067012 19.580887662238705 13.67921534095561
    vertex 5.3069676319258345 19.930539141004914 15.679215340955608
    vertex 6.151100974067012 19.580887662238705 15.679215340955608
  endloop
endfacet
facet normal 0.13052619222004852 0.9914448613738108 0.0
  outer loop
    vertex 4.401100974067011 20.049798748993172 15.679215340955608
    vertex 5.3069676319258345 19.930539141004914 13.67921534095561
    vertex 4.401100974067011 20.049798748993172 13.67921534095561
  endloop
endfacet
facet normal 0.13052619222004852 0.9914448613738108 0.0
  outer loop
    vertex 5.3069676319258345 19.930539141004914 13.67921534095561
    vertex 4.401100974067011 20.049798748993172 15.679215340955608
    vertex 5.3069676319258345 19.930539141004914 15.679215340955608
  endloop
endfacet
facet normal -0.1305261922200489 0.9914448613738108 0.0
  outer loop
    vertex 3.495234316208189 19.930539141004914 15.679215340955608
    vertex 4.401100974067011 20.049798748993172 13.67921534095561
    vertex 3.495234316208189 19.930539141004914 13.67921534095561
  endloop
endfacet
facet normal -0.1305261922200489 0.9914448613738108 0.0
  outer loop
    vertex 4.401100974067011 20.049798748993172 13.67921534095561
    vertex 3.495234316208189 19.930539141004914 15.679215340955608
    vertex 4.401100974067011 20.049798748993172 15.679215340955608
  endloop
endfacet
facet normal -0.3826834323650921 0.9238795325112859 0.0
  outer loop
    vertex 2.6511009740670106 19.580887662238705 15.679215340955608
    vertex 3.495234316208189 19.930539141004914 13.67921534095561
    vertex 2.6511009740670106 19.580887662238705 13.67921534095561
  endloop
endfacet
facet normal -0.3826834323650921 0.9238795325112859 0.0
  outer loop
    vertex 3.495234316208189 19.930539141004914 13.67921534095561
    vertex 2.6511009740670106 19.580887662238705 15.679215340955608
    vertex 3.495234316208189 19.930539141004914 15.679215340955608
  endloop
endfacet
facet normal 0.0 0.0 1.0
  outer loop
    vertex 1.0203605820552721 15.643932091134353 15.679215340955608
    vertex 1.0203605820552721 17.455665406851995 15.679215340955608
    vertex 0.9011009740670111 16.549798748993172 15.679215340955608
  endloop
endfacet
facet normal 0.0 0.0 1.0
  outer loop
    vertex 1.0203605820552721 17.455665406851995 15.679215340955608
    vertex 1.0203605820552721 15.643932091134353 15.679215340955608
    vertex 1.370012060821476 14.799798748993176 15.679215340955608
  endloop
endfacet
facet normal 0.0 0.0 1.0
  outer loop
    vertex 1.0203605820552721 17.455665406851995 15.679215340955608
    vertex 1.370012060821476 14.799798748993176 15.679215340955608
    vertex 1.370012060821476 18.299798748993176 15.679215340955608
  endloop
endfacet
facet normal 0.0 0.0 1.0
  outer loop
    vertex 1.370012060821476 18.299798748993176 15.679215340955608
    vertex 1.370012060821476 14.799798748993176 15.679215340955608
    vertex 1.9262272399140934 14.074925014840256 15.679215340955608
  endloop
endfacet
facet normal 0.0 0.0 1.0
  outer loop
    vertex 1.370012060821476 18.299798748993176 15.679215340955608
    vertex 1.9262272399140934 14.074925014840256 15.679215340955608
    vertex 1.9262272399140934 19.024672483146087 15.679215340955608
  endloop
endfacet
facet normal 0.0 0.0 1.0
  outer loop
    vertex 1.9262272399140934 19.024672483146087 15.679215340955608
    vertex 1.9262272399140934 14.074925014840256 15.679215340955608
    vertex 2.651100974067008 13.518709835747638 15.679215340955608
  endloop
endfacet
facet normal 0.0 0.0 1.0
  outer loop
    vertex 1.9262272399140934 19.024672483146087 15.679215340955608
    vertex 2.651100974067008 13.518709835747638 15.679215340955608
    vertex 2.4011009740670084 16.549798748993172 15.679215340955608
  endloop
endfacet
facet normal 0.0 0.0 1.0
  outer loop
    vertex 2.4011009740670084 16.549798748993172 15.679215340955608
    vertex 2.651100974067008 13.518709835747638 15.679215340955608
    vertex 2.469249321488872 16.032160658788133 15.679215340955608
  endloop
endfacet
facet normal 0.0 0.0 1.0
  outer loop
    vertex 2.469249321488872 16.032160658788133 15.679215340955608
    vertex 2.651100974067008 13.518709835747638 15.679215340955608
    vertex 2.669050166498132 15.549798748993174 15.679215340955608
  endloop
endfacet
facet normal 0.0 0.0 1.0
  outer loop
    vertex 2.669050166498132 15.549798748993174 15.679215340955608
    vertex 2.651100974067008 13.518709835747638 15.679215340955608
    vertex 3.4952343162081863 13.169058356981436 15.679215340955608
  endloop
endfacet
facet normal 0.0 0.0 1.0
  outer loop
    vertex 2.669050166498132 15.549798748993174 15.679215340955608
    vertex 3.4952343162081863 13.169058356981436 15.679215340955608
    vertex 2.9868874116939117 15.135585186620078 15.679215340955608
  endloop
endfacet
facet normal 0.0 0.0 1.0
  outer loop
    vertex 2.9868874116939117 15.135585186620078 15.679215340955608
    vertex 3.4952343162081863 13.169058356981436 15.679215340955608
    vertex 3.4011009740670093 14.817747941424294 15.679215340955608
  endloop
endfacet
facet normal 0.0 0.0 1.0
  outer loop
    vertex 3.4011009740670093 14.817747941424294 15.679215340955608
    vertex 3.4952343162081863 13.169058356981436 15.679215340955608
    vertex 3.883462883861968 14.617947096415033 15.679215340955608
  endloop
endfacet
facet normal 0.0 0.0 1.0
  outer loop
    vertex 3.883462883861968 14.617947096415033 15.679215340955608
    vertex 3.4952343162081863 13.169058356981436 15.679215340955608
    vertex 4.401100974067011 13.049798748993172 15.679215340955608
  endloop
endfacet
facet normal 0.0 0.0 1.0
  outer loop
    vertex 3.883462883861968 14.617947096415033 15.679215340955608
    vertex 4.401100974067011 13.049798748993172 15.679215340955608
    vertex 4.401100974067011 14.54979874899317 15.679215340955608
  endloop
endfacet
facet normal 0.0 0.0 1.0
  outer loop
    vertex 4.401100974067011 14.54979874899317 15.679215340955608
    vertex 4.401100974067011 13.049798748993172 15.679215340955608
    vertex 5.306967631925832 13.16905835698143 15.679215340955608
  endloop
endfacet
facet normal 0.0 0.0 1.0
  outer loop
    vertex 4.401100974067011 14.54979874899317 15.679215340955608
    vertex 5.306967631925832 13.16905835698143 15.679215340955608
    vertex 4.91873906427205 14.617947096415033 15.679215340955608
  endloop
endfacet
facet normal 0.0 0.0 1.0
  outer loop
    vertex 4.91873906427205 14.617947096415033 15.679215340955608
    vertex 5.306967631925832 13.16905835698143 15.679215340955608
    vertex 5.401100974067009 14.817747941424294 15.679215340955608
  endloop
endfacet
facet normal 0.0 0.0 1.0
  outer loop
    vertex 5.401100974067009 14.817747941424294 15.679215340955608
    vertex 5.306967631925832 13.16905835698143 15.679215340955608
    vertex 6.151100974067007 13.518709835747638 15.679215340955608
  endloop
endfacet
facet normal 0.0 0.0 1.0
  outer loop
    vertex 5.401100974067009 14.817747941424294 15.679215340955608
    vertex 6.151100974067007 13.518709835747638 15.679215340955608
    vertex 5.815314536440106 15.135585186620073 15.679215340955608
  endloop
endfacet
facet normal 0.0 0.0 1.0
  outer loop
    vertex 5.815314536440106 15.135585186620073 15.679215340955608
    vertex 6.151100974067007 13.518709835747638 15.679215340955608
    vertex 6.133151781635888 15.549798748993169 15.679215340955608
  endloop
endfacet
facet normal 0.0 0.0 1.0
  outer loop
    vertex 6.133151781635888 15.549798748993169 15.679215340955608
    vertex 6.151100974067007 13.518709835747638 15.679215340955608
    vertex 6.332952626645149 16.032160658788126 15.679215340955608
  endloop
endfacet
facet normal 0.0 0.0 1.0
  outer loop
    vertex 6.332952626645149 16.032160658788126 15.679215340955608
    vertex 6.151100974067007 13.518709835747638 15.679215340955608
    vertex 6.875974708219927 14.074925014840256 15.679215340955608
  endloop
endfacet
facet normal 0.0 0.0 1.0
  outer loop
    vertex 6.332952626645149 16.032160658788126 15.679215340955608
    vertex 6.875974708219927 14.074925014840256 15.679215340955608
    vertex 6.401100974067012 16.549798748993172 15.679215340955608
  endloop
endfacet
facet normal 0.0 0.0 1.0
  outer loop
    vertex 2.4011009740670084 16.549798748993172 15.679215340955608
    vertex 2.6511009740670106 19.580887662238705 15.679215340955608
    vertex 1.9262272399140934 19.024672483146087 15.679215340955608
  endloop
endfacet
facet normal 0.0 0.0 1.0
  outer loop
    vertex 2.6511009740670106 19.580887662238705 15.679215340955608
    vertex 2.4011009740670084 16.549798748993172 15.679215340955608
    vertex 2.469249321488872 17.067436839198212 15.679215340955608
  endloop
endfacet
facet normal 0.0 0.0 1.0
  outer loop
    vertex 2.6511009740670106 19.580887662238705 15.679215340955608
    vertex 2.469249321488872 17.067436839198212 15.679215340955608
    vertex 2.669050166498132 17.549798748993176 15.679215340955608
  endloop
endfacet
facet normal 0.0 0.0 1.0
  outer loop
    vertex 2.6511009740670106 19.580887662238705 15.679215340955608
    vertex 2.669050166498132 17.549798748993176 15.679215340955608
    vertex 3.495234316208189 19.930539141004914 15.679215340955608
  endloop
endfacet
facet normal 0.0 0.0 1.0
  outer loop
    vertex 3.495234316208189 19.930539141004914 15.679215340955608
    vertex 2.669050166498132 17.549798748993176 15.679215340955608
    vertex 2.9868874116939144 17.96401231136627 15.679215340955608
  endloop
endfacet
facet normal 0.0 0.0 1.0
  outer loop
    vertex 3.495234316208189 19.930539141004914 15.679215340955608
    vertex 2.9868874116939144 17.96401231136627 15.679215340955608
    vertex 3.4011009740670093 18.28184955656205 15.679215340955608
  endloop
endfacet
facet normal 0.0 0.0 1.0
  outer loop
    vertex 3.495234316208189 19.930539141004914 15.679215340955608
    vertex 3.4011009740670093 18.28184955656205 15.679215340955608
    vertex 3.883462883861968 18.48165040157131 15.679215340955608
  endloop
endfacet
facet normal 0.0 0.0 1.0
  outer loop
    vertex 3.495234316208189 19.930539141004914 15.679215340955608
    vertex 3.883462883861968 18.48165040157131 15.679215340955608
    vertex 4.401100974067011 20.049798748993172 15.679215340955608
  endloop
endfacet
facet normal 0.0 0.0 1.0
  outer loop
    vertex 4.401100974067011 20.049798748993172 15.679215340955608
    vertex 3.883462883861968 18.48165040157131 15.679215340955608
    vertex 4.401100974067011 18.549798748993172 15.679215340955608
  endloop
endfacet
facet normal 0.0 0.0 1.0
  outer loop
    vertex 4.401100974067011 20.049798748993172 15.679215340955608
    vertex 4.401100974067011 18.549798748993172 15.679215340955608
    vertex 4.918739064272053 18.48165040157131 15.679215340955608
  endloop
endfacet
facet normal 0.0 0.0 1.0
  outer loop
    vertex 4.401100974067011 20.049798748993172 15.679215340955608
    vertex 4.918739064272053 18.48165040157131 15.679215340955608
    vertex 5.3069676319258345 19.930539141004914 15.679215340955608
  endloop
endfacet
facet normal 0.0 0.0 1.0
  outer loop
    vertex 5.3069676319258345 19.930539141004914 15.679215340955608
    vertex 4.918739064272053 18.48165040157131 15.679215340955608
    vertex 5.4011009740670115 18.28184955656205 15.679215340955608
  endloop
endfacet
facet normal 0.0 0.0 1.0
  outer loop
    vertex 5.3069676319258345 19.930539141004914 15.679215340955608
    vertex 5.4011009740670115 18.28184955656205 15.679215340955608
    vertex 6.151100974067012 19.580887662238705 15.679215340955608
  endloop
endfacet
facet normal 0.0 0.0 1.0
  outer loop
    vertex 6.151100974067012 19.580887662238705 15.679215340955608
    vertex 5.4011009740670115 18.28184955656205 15.679215340955608
    vertex 5.815314536440106 17.96401231136627 15.679215340955608
  endloop
endfacet
facet normal 0.0 0.0 1.0
  outer loop
    vertex 6.151100974067012 19.580887662238705 15.679215340955608
    vertex 5.815314536440106 17.96401231136627 15.679215340955608
    vertex 6.133151781635888 17.54979874899317 15.679215340955608
  endloop
endfacet
facet normal 0.0 0.0 1.0
  outer loop
    vertex 6.151100974067012 19.580887662238705 15.679215340955608
    vertex 6.133151781635888 17.54979874899317 15.679215340955608
    vertex 6.332952626645149 17.067436839198212 15.679215340955608
  endloop
endfacet
facet normal 0.0 0.0 1.0
  outer loop
    vertex 6.151100974067012 19.580887662238705 15.679215340955608
    vertex 6.332952626645149 17.067436839198212 15.679215340955608
    vertex 6.875974708219927 19.024672483146087 15.679215340955608
  endloop
endfacet
facet normal 0.0 0.0 1.0
  outer loop
    vertex 6.875974708219927 19.024672483146087 15.679215340955608
    vertex 6.332952626645149 17.067436839198212 15.679215340955608
    vertex 6.401100974067012 16.549798748993172 15.679215340955608
  endloop
endfacet
facet normal 0.0 0.0 1.0
  outer loop
    vertex 6.875974708219927 19.024672483146087 15.679215340955608
    vertex 6.401100974067012 16.549798748993172 15.679215340955608
    vertex 6.875974708219927 14.074925014840256 15.679215340955608
  endloop
endfacet
facet normal 0.0 0.0 1.0
  outer loop
    vertex 6.875974708219927 19.024672483146087 15.679215340955608
    vertex 6.875974708219927 14.074925014840256 15.679215340955608
    vertex 7.4321898873125445 14.799798748993169 15.679215340955608
  endloop
endfacet
facet normal 0.0 0.0 1.0
  outer loop
    vertex 6.875974708219927 19.024672483146087 15.679215340955608
    vertex 7.4321898873125445 14.799798748993169 15.679215340955608
    vertex 7.4321898873125445 18.29979874899317 15.679215340955608
  endloop
endfacet
facet normal 0.0 0.0 1.0
  outer loop
    vertex 7.4321898873125445 18.29979874899317 15.679215340955608
    vertex 7.4321898873125445 14.799798748993169 15.679215340955608
    vertex 7.781841366078746 15.643932091134348 15.679215340955608
  endloop
endfacet
facet normal 0.0 0.0 1.0
  outer loop
    vertex 7.4321898873125445 18.29979874899317 15.679215340955608
    vertex 7.781841366078746 15.643932091134348 15.679215340955608
    vertex 7.781841366078746 17.455665406851995 15.679215340955608
  endloop
endfacet
facet normal 0.0 0.0 1.0
  outer loop
    vertex 7.781841366078746 17.455665406851995 15.679215340955608
    vertex 7.781841366078746 15.643932091134348 15.679215340955608
    vertex 7.90110097406701 16.549798748993172 15.679215340955608
  endloop
endfacet
facet normal 0.0 0.0 -1.0
  outer loop
    vertex 1.0203605820552721 17.455665406851995 13.67921534095561
    vertex 1.0203605820552721 15.643932091134353 13.67921534095561
    vertex 0.9011009740670111 16.549798748993172 13.67921534095561
  endloop
endfacet
facet normal 0.0 0.0 -1.0
  outer loop
    vertex 1.0203605820552721 15.643932091134353 13.67921534095561
    vertex 1.0203605820552721 17.455665406851995 13.67921534095561
    vertex 1.370012060821476 18.299798748993176 13.67921534095561
  endloop
endfacet
facet normal 0.0 0.0 -1.0
  outer loop
    vertex 1.0203605820552721 15.643932091134353 13.67921534095561
    vertex 1.370012060821476 18.299798748993176 13.67921534095561
    vertex 1.370012060821476 14.799798748993176 13.67921534095561
  endloop
endfacet
facet normal 0.0 0.0 -1.0
  outer loop
    vertex 1.370012060821476 14.799798748993176 13.67921534095561
    vertex 1.370012060821476 18.299798748993176 13.67921534095561
    vertex 1.9262272399140934 19.024672483146087 13.67921534095561
  endloop
endfacet
facet normal 0.0 0.0 -1.0
  outer loop
    vertex 1.370012060821476 14.799798748993176 13.67921534095561
    vertex 1.9262272399140934 19.024672483146087 13.67921534095561
    vertex 1.9262272399140934 14.074925014840256 13.67921534095561
  endloop
endfacet
facet normal 0.0 0.0 -1.0
  outer loop
    vertex 1.9262272399140934 14.074925014840256 13.67921534095561
    vertex 1.9262272399140934 19.024672483146087 13.67921534095561
    vertex 2.6511009740670106 19.580887662238705 13.67921534095561
  endloop
endfacet
facet normal 0.0 0.0 -1.0
  outer loop
    vertex 1.9262272399140934 14.074925014840256 13.67921534095561
    vertex 2.6511009740670106 19.580887662238705 13.67921534095561
    vertex 2.651100974067008 13.518709835747638 13.67921534095561
  endloop
endfacet
facet normal 0.0 0.0 -1.0
  outer loop
    vertex 2.651100974067008 13.518709835747638 13.67921534095561
    vertex 2.6511009740670106 19.580887662238705 13.67921534095561
    vertex 3.4952343162081863 13.169058356981436 13.67921534095561
  endloop
endfacet
facet normal 0.0 0.0 -1.0
  outer loop
    vertex 3.4952343162081863 13.169058356981436 13.67921534095561
    vertex 2.6511009740670106 19.580887662238705 13.67921534095561
    vertex 3.495234316208189 19.930539141004914 13.67921534095561
  endloop
endfacet
facet normal 0.0 0.0 -1.0
  outer loop
    vertex 3.4952343162081863 13.169058356981436 13.67921534095561
    vertex 3.495234316208189 19.930539141004914 13.67921534095561
    vertex 4.401100974067011 13.049798748993172 13.67921534095561
  endloop
endfacet
facet normal 0.0 0.0 -1.0
  outer loop
    vertex 4.401100974067011 13.049798748993172 13.67921534095561
    vertex 3.495234316208189 19.930539141004914 13.67921534095561
    vertex 4.401100974067011 20.049798748993172 13.67921534095561
  endloop
endfacet
facet normal 0.0 0.0 -1.0
  outer loop
    vertex 4.401100974067011 13.049798748993172 13.67921534095561
    vertex 4.401100974067011 20.049798748993172 13.67921534095561
    vertex 5.3069676319258345 19.930539141004914 13.67921534095561
  endloop
endfacet
facet normal 0.0 0.0 -1.0
  outer loop
    vertex 4.401100974067011 13.049798748993172 13.67921534095561
    vertex 5.3069676319258345 19.930539141004914 13.67921534095561
    vertex 5.306967631925832 13.16905835698143 13.67921534095561
  endloop
endfacet
facet normal 0.0 0.0 -1.0
  outer loop
    vertex 5.306967631925832 13.16905835698143 13.67921534095561
    vertex 5.3069676319258345 19.930539141004914 13.67921534095561
    vertex 6.151100974067007 13.518709835747638 13.67921534095561
  endloop
endfacet
facet normal 0.0 0.0 -1.0
  outer loop
    vertex 6.151100974067007 13.518709835747638 13.67921534095561
    vertex 5.3069676319258345 19.930539141004914 13.67921534095561
    vertex 6.151100974067012 19.580887662238705 13.67921534095561
  endloop
endfacet
facet normal 0.0 0.0 -1.0
  outer loop
    vertex 6.151100974067007 13.518709835747638 13.67921534095561
    vertex 6.151100974067012 19.580887662238705 13.67921534095561
    vertex 6.875974708219927 14.074925014840256 13.67921534095561
  endloop
endfacet
facet normal 0.0 0.0 -1.0
  outer loop
    vertex 6.875974708219927 14.074925014840256 13.67921534095561
    vertex 6.151100974067012 19.580887662238705 13.67921534095561
    vertex 6.875974708219927 19.024672483146087 13.67921534095561
  endloop
endfacet
facet normal 0.0 0.0 -1.0
  outer loop
    vertex 6.875974708219927 14.074925014840256 13.67921534095561
    vertex 6.875974708219927 19.024672483146087 13.67921534095561
    vertex 7.4321898873125445 18.29979874899317 13.67921534095561
  endloop
endfacet
facet normal 0.0 0.0 -1.0
  outer loop
    vertex 6.875974708219927 14.074925014840256 13.67921534095561
    vertex 7.4321898873125445 18.29979874899317 13.67921534095561
    vertex 7.4321898873125445 14.799798748993169 13.67921534095561
  endloop
endfacet
facet normal 0.0 0.0 -1.0
  outer loop
    vertex 7.4321898873125445 14.799798748993169 13.67921534095561
    vertex 7.4321898873125445 18.29979874899317 13.67921534095561
    vertex 7.781841366078746 17.455665406851995 13.67921534095561
  endloop
endfacet
facet normal 0.0 0.0 -1.0
  outer loop
    vertex 7.4321898873125445 14.799798748993169 13.67921534095561
    vertex 7.781841366078746 17.455665406851995 13.67921534095561
    vertex 7.781841366078746 15.643932091134348 13.67921534095561
  endloop
endfacet
facet normal 0.0 0.0 -1.0
  outer loop
    vertex 7.781841366078746 15.643932091134348 13.67921534095561
    vertex 7.781841366078746 17.455665406851995 13.67921534095561
    vertex 7.90110097406701 16.549798748993172 13.67921534095561
  endloop
endfacet
endsolid Pi1541v3
